<svg width="149" height="31" viewBox="0 0 149 31" fill="none" xmlns="http://www.w3.org/2000/svg">
<path fill-rule="evenodd" clip-rule="evenodd" d="M6.85565 14.3985V25.3542C6.85565 25.9042 6.40203 26.35 5.84211 26.35H1.78844C1.22853 26.35 0.774902 25.9042 0.774902 25.3542V5.43484C0.774902 5.02227 1.0337 4.65249 1.42579 4.50501C1.42579 4.50501 10.2424 1.1844 12.8617 0.197917C13.5622 -0.0659724 14.3374 -0.0659724 15.0379 0.197917C17.6572 1.1844 26.4741 4.50501 26.4741 4.50501C26.9963 4.70173 27.2578 5.27803 27.0576 5.79123C26.8574 6.30467 26.271 6.56163 25.7488 6.3649C25.7488 6.3649 16.9319 3.04429 14.3126 2.05781C14.0791 1.96985 13.8208 1.96985 13.5873 2.05781L2.80174 6.1199V24.3582H4.82882V9.41876C4.82882 8.86875 5.28244 8.42272 5.84211 8.42272H22.0575C22.6172 8.42272 23.0711 8.86875 23.0711 9.41876V24.3582H25.0979V9.41876C25.0979 8.86899 25.552 8.42272 26.1114 8.42272C26.6706 8.42272 27.1247 8.86899 27.1247 9.41876V25.3542C27.1247 25.9042 26.6711 26.35 26.1114 26.35H22.0575C21.4978 26.35 21.044 25.9042 21.044 25.3542V14.3985H6.85565ZM21.044 12.4066V10.4148H6.85567V12.4066H21.044Z" fill="black"/>
<path fill-rule="evenodd" clip-rule="evenodd" d="M74.5549 24.4048C74.3844 24.6063 74.1674 24.7341 73.9039 24.7884C73.6404 24.8426 73.3769 24.8426 73.1134 24.7884C72.8499 24.7341 72.6329 24.6605 72.4624 24.5675C72.1989 24.4125 71.9354 24.1839 71.6719 23.8816C71.4084 23.5794 71.1953 23.1725 71.0326 22.661C70.8698 22.1495 70.7884 21.4908 70.7884 20.6848C70.7884 20.4213 70.7419 20.1771 70.6489 19.9524C70.5559 19.7276 70.4242 19.5339 70.2537 19.3711C70.0832 19.2084 69.8662 19.0844 69.6027 18.9991L69.3964 18.9432C69.1813 18.8953 68.9401 18.8713 68.6727 18.8713L64.325 18.8728V23.3818C64.325 23.7848 64.2165 24.1219 63.9995 24.3931C63.7825 24.6644 63.4802 24.8 63.0927 24.8C62.6587 24.8 62.2712 24.6644 61.9302 24.3931C61.5892 24.1219 61.4187 23.7848 61.4187 23.3818V9.94327C61.4187 9.54027 61.5543 9.20315 61.8256 8.9319C62.0968 8.66065 62.434 8.52502 62.837 8.52502H69.5329C70.3389 8.52502 71.0946 8.73815 71.7998 9.1644C72.5051 9.59065 73.0747 10.1796 73.5087 10.9314C73.9427 11.6831 74.1597 12.5473 74.1597 13.5238C74.1597 14.1128 74.0396 14.6863 73.7993 15.2443C73.5591 15.8023 73.2336 16.306 72.8228 16.7555L72.5703 17.0131C72.398 17.1768 72.2175 17.3244 72.0291 17.4558L71.9029 17.5383L71.9482 17.5665C72.1732 17.7264 72.3718 17.9017 72.5438 18.0924C72.8306 18.4101 73.0553 18.7511 73.2181 19.1154C73.3808 19.4796 73.4777 19.871 73.5087 20.2895C73.5707 20.677 73.6133 21.018 73.6366 21.3125C73.6598 21.607 73.7063 21.855 73.7761 22.0565C73.8458 22.258 73.9814 22.413 74.1829 22.5215C74.5239 22.723 74.7371 23.0136 74.8223 23.3934C74.9076 23.7731 74.8184 24.1103 74.5549 24.4048ZM69.4167 11.1988H64.3249V16.4765H69.4167C69.6957 16.4765 69.967 16.3486 70.2305 16.0929C70.494 15.8371 70.711 15.4884 70.8815 15.0466C71.052 14.6049 71.1372 14.1205 71.1372 13.5935C71.1372 12.9115 70.9551 12.3419 70.5908 11.8846C70.2266 11.4274 69.8352 11.1988 69.4167 11.1988ZM84.3665 24.8C85.87 24.8 87.1371 24.4358 88.1679 23.7073C89.1986 22.9788 89.9852 21.9984 90.5277 20.7662C91.0702 19.5339 91.3415 18.166 91.3415 16.6625C91.3415 15.5465 91.1904 14.4964 90.8881 13.5121C90.5859 12.5279 90.1364 11.6599 89.5396 10.9081C88.9429 10.1564 88.2105 9.57127 87.3425 9.15277C86.4745 8.73427 85.4825 8.52502 84.3665 8.52502H78.8097C78.4067 8.52502 78.0696 8.66065 77.7984 8.9319C77.5271 9.20315 77.3915 9.54027 77.3915 9.94327V23.3818C77.3915 23.7848 77.5271 24.1219 77.7984 24.3932C78.0696 24.6644 78.4067 24.8 78.8097 24.8H84.3665ZM84.134 11.1988H80.2977V22.1263H84.134C85.1105 22.1263 85.9087 21.8744 86.5287 21.3706C87.1487 20.8669 87.6021 20.2004 87.8889 19.3711C88.1756 18.5419 88.319 17.639 88.319 16.6625C88.319 15.934 88.2376 15.2404 88.0749 14.5816C87.9121 13.9229 87.6602 13.3416 87.3192 12.8379C86.9782 12.3341 86.5442 11.935 86.0172 11.6405C85.4902 11.346 84.8625 11.1988 84.134 11.1988Z" fill="#ACD9B2"/>
<path fill-rule="evenodd" clip-rule="evenodd" d="M133.083 24.366C132.794 24.6553 132.434 24.8 132.004 24.8C131.591 24.8 131.244 24.6553 130.963 24.366C130.682 24.0767 130.541 23.7171 130.541 23.2872V7.9608C130.541 7.53093 130.686 7.17133 130.975 6.882C131.264 6.59266 131.624 6.448 132.054 6.448C132.484 6.448 132.835 6.59266 133.108 6.882C133.381 7.17133 133.517 7.53093 133.517 7.9608V23.2872C133.517 23.7171 133.372 24.0767 133.083 24.366ZM109.002 24.428C108.035 24.8413 106.989 25.048 105.865 25.048C104.708 25.048 103.666 24.9033 102.74 24.614C101.814 24.3247 100.93 23.8163 100.087 23.0888C99.8717 22.9069 99.7063 22.7003 99.5906 22.4688C99.4749 22.2373 99.417 22.0059 99.417 21.7744C99.417 21.3941 99.5534 21.0593 99.8262 20.77C100.099 20.4807 100.442 20.336 100.855 20.336C101.17 20.336 101.451 20.4352 101.699 20.6336C102.327 21.1461 102.951 21.5347 103.571 21.7992C104.191 22.0637 104.956 22.196 105.865 22.196C106.477 22.196 107.039 22.1009 107.551 21.9108C108.064 21.7207 108.477 21.4644 108.791 21.142C109.106 20.8196 109.263 20.4517 109.263 20.0384C109.263 19.5424 109.114 19.1208 108.816 18.7736C108.519 18.4264 108.064 18.1329 107.452 17.8932C106.84 17.6535 106.063 17.4675 105.121 17.3352C104.228 17.2029 103.443 17.0004 102.765 16.7276C102.087 16.4548 101.521 16.1076 101.066 15.686C100.612 15.2644 100.268 14.7684 100.037 14.198C99.8055 13.6276 99.6898 12.9869 99.6898 12.276C99.6898 11.2013 99.9667 10.2837 100.521 9.5232C101.074 8.76267 101.823 8.184 102.765 7.7872C103.707 7.3904 104.749 7.192 105.89 7.192C106.964 7.192 107.961 7.3532 108.878 7.6756C109.796 7.998 110.544 8.4072 111.123 8.9032C111.602 9.28347 111.842 9.7216 111.842 10.2176C111.842 10.5813 111.701 10.912 111.42 11.2096C111.139 11.5072 110.808 11.656 110.428 11.656C110.18 11.656 109.957 11.5816 109.759 11.4328C109.494 11.2013 109.139 10.9823 108.692 10.7756C108.246 10.5689 107.775 10.3953 107.279 10.2548C106.783 10.1143 106.32 10.044 105.89 10.044C105.179 10.044 104.58 10.1349 104.092 10.3168C103.604 10.4987 103.236 10.7467 102.988 11.0608C102.74 11.3749 102.616 11.7387 102.616 12.152C102.616 12.648 102.761 13.0572 103.05 13.3796C103.34 13.702 103.757 13.9583 104.303 14.1484C104.848 14.3385 105.501 14.508 106.262 14.6568C107.254 14.8387 108.126 15.0536 108.878 15.3016C109.63 15.5496 110.255 15.8679 110.751 16.2564C111.247 16.6449 111.619 17.1327 111.867 17.7196C112.115 18.3065 112.239 19.0216 112.239 19.8648C112.239 20.9395 111.941 21.8653 111.346 22.6424C110.751 23.4195 109.969 24.0147 109.002 24.428ZM121.948 24.738C121.41 24.9447 120.828 25.048 120.199 25.048C119.059 25.048 118.025 24.7545 117.099 24.1676C116.174 23.5807 115.442 22.7705 114.905 21.7372C114.367 20.7039 114.099 19.5176 114.099 18.1784C114.099 16.8227 114.367 15.6281 114.905 14.5948C115.442 13.5615 116.165 12.7513 117.075 12.1644C117.984 11.5775 118.992 11.284 120.1 11.284C120.811 11.284 121.464 11.3915 122.059 11.6064C122.655 11.8213 123.171 12.0941 123.609 12.4248L123.86 12.6237C123.94 12.6902 124.018 12.7592 124.093 12.8309V12.7968C124.093 12.3669 124.234 12.0073 124.515 11.718C124.796 11.4287 125.151 11.284 125.581 11.284C126.011 11.284 126.366 11.4245 126.647 11.7056C126.928 11.9867 127.069 12.3504 127.069 12.7968V23.2872C127.069 23.7171 126.928 24.0767 126.647 24.366C126.366 24.6553 126.011 24.8 125.581 24.8C125.151 24.8 124.796 24.6553 124.515 24.366L124.386 24.2155C124.23 24.007 124.136 23.7672 124.105 23.4963L124.095 23.312L123.974 23.4415C123.795 23.623 123.587 23.803 123.349 23.9816C122.952 24.2792 122.485 24.5313 121.948 24.738ZM120.571 22.32C119.86 22.32 119.232 22.1381 118.687 21.7744C118.141 21.4107 117.715 20.9147 117.409 20.2864C117.104 19.6581 116.951 18.9555 116.951 18.1784C116.951 17.3848 117.104 16.6739 117.409 16.0456C117.715 15.4173 118.141 14.9213 118.687 14.5576C119.232 14.1939 119.86 14.012 120.571 14.012C121.299 14.012 121.935 14.1939 122.481 14.5576C123.027 14.9213 123.452 15.4173 123.758 16.0456C124.064 16.6739 124.217 17.3848 124.217 18.1784C124.217 18.9555 124.064 19.6581 123.758 20.2864C123.452 20.9147 123.027 21.4107 122.481 21.7744C121.935 22.1381 121.299 22.32 120.571 22.32ZM143.115 25.048C143.941 25.048 144.743 24.9116 145.52 24.6388C146.297 24.366 146.901 24.0477 147.331 23.684C147.794 23.3203 148.025 22.9152 148.025 22.4688C148.025 22.1381 147.905 21.8488 147.665 21.6008C147.426 21.3528 147.124 21.2288 146.76 21.2288C146.496 21.2288 146.215 21.3032 145.917 21.452C145.735 21.5512 145.533 21.6711 145.309 21.8116C145.086 21.9521 144.793 22.072 144.429 22.1712C144.065 22.2704 143.578 22.32 142.966 22.32C142.304 22.32 141.68 22.1588 141.093 21.8364C140.506 21.514 140.027 21.0428 139.655 20.4228C139.442 20.0685 139.291 19.6697 139.199 19.2263L139.193 19.1952H147.38C147.698 19.1952 147.983 19.1158 148.237 18.9571L148.422 18.8232C148.719 18.5752 148.876 18.2528 148.893 17.856C148.893 16.9632 148.724 16.12 148.385 15.3264C148.046 14.5328 147.587 13.8343 147.008 13.2308C146.43 12.6273 145.764 12.152 145.012 11.8048C144.26 11.4576 143.462 11.284 142.619 11.284C141.527 11.284 140.494 11.5651 139.519 12.1272C138.543 12.6893 137.754 13.4953 137.15 14.5452C136.547 15.5951 136.245 16.864 136.245 18.352C136.245 19.6251 136.522 20.7659 137.076 21.7744C137.63 22.7829 138.423 23.5807 139.457 24.1676C140.49 24.7545 141.709 25.048 143.115 25.048ZM139.219 16.7152H145.719V16.5416C145.686 16.0621 145.516 15.6323 145.21 15.252C144.904 14.8717 144.524 14.57 144.069 14.3468C143.615 14.1236 143.131 14.012 142.619 14.012C142.123 14.012 141.66 14.0781 141.23 14.2104C140.8 14.3427 140.428 14.5659 140.114 14.88C139.8 15.1941 139.552 15.6157 139.37 16.1448L139.286 16.421L139.219 16.7152Z" fill="black"/>
<path d="M38.0448 24.8C38.4013 24.8 38.7151 24.6644 38.9864 24.3931C39.2576 24.1219 39.3933 23.7848 39.3933 23.3818V17.715L44.2525 10.757C44.3145 10.664 44.3645 10.5693 44.4023 10.4728L44.4501 10.3269C44.4889 10.1796 44.5083 10.0363 44.5083 9.89676C44.5083 9.47826 44.3649 9.13339 44.0781 8.86214C43.7914 8.59089 43.4698 8.45526 43.1133 8.45526C42.6638 8.45526 42.2763 8.68776 41.9508 9.15276L38.1176 14.7607L34.0225 9.10626C33.7435 8.73426 33.4247 8.52169 33.0659 8.46855L32.8833 8.45526C32.5423 8.45526 32.209 8.58701 31.8835 8.85051C31.558 9.11401 31.3953 9.45501 31.3953 9.87351C31.3953 10.0285 31.4263 10.199 31.4883 10.385C31.5503 10.571 31.6588 10.7648 31.8138 10.9663L36.6498 17.3941V23.3818C36.6498 23.7176 36.7439 24.0077 36.9323 24.252L37.0566 24.3931C37.3279 24.6644 37.6573 24.8 38.0448 24.8Z" fill="#ACD9B2"/>
<path fill-rule="evenodd" clip-rule="evenodd" d="M58.2605 24.5443C57.9893 24.7923 57.6909 24.9163 57.3654 24.9163C57.0864 24.9163 56.8345 24.831 56.6098 24.6605L56.4506 24.521C56.301 24.3699 56.1796 24.1839 56.0866 23.963L54.8792 21.1498H47.946L46.7401 23.9863C46.6316 24.2808 46.465 24.5094 46.2403 24.6721C46.0155 24.8349 45.7714 24.9163 45.5079 24.9163C45.0894 24.9163 44.7794 24.8 44.5779 24.5675C44.3764 24.335 44.2756 24.0483 44.2756 23.7073C44.2756 23.5678 44.2989 23.4205 44.3454 23.2655L50.1346 9.36202C50.2586 9.05202 50.4485 8.81177 50.7043 8.64127C50.96 8.47077 51.2351 8.40102 51.5296 8.43202C51.8086 8.43202 52.0683 8.51339 52.3085 8.67614C52.5488 8.83889 52.7231 9.06752 52.8316 9.36202L58.5511 22.9865C58.6286 23.188 58.6674 23.374 58.6674 23.5445C58.6674 23.963 58.5318 24.2963 58.2605 24.5443ZM49.0838 18.476H53.7322L51.3964 13.034L49.0838 18.476Z" fill="#ACD9B2"/>
</svg>
